<?xml version="1.0" encoding="UTF-8" standalone="no"?>
<svg
   width="36.5443"
   height="42.129402"
   viewBox="0 0 36.5443 42.129402"
   fill="none"
   version="1.1"
   id="svg19"
   xmlns="http://www.w3.org/2000/svg"
   xmlns:svg="http://www.w3.org/2000/svg">
  <g
     clip-path="url(#clip0_6_50217)"
     id="g12"
     transform="translate(0,-16.8706)">
    <path
       d="m 24.6515,58.9997 c 3.3719,-0.1422 6.1515,-1.3743 8.3842,-3.7438 2.2328,-2.3695 3.4175,-5.3075 3.5086,-8.8618 -0.0911,-3.3646 -1.1391,-6.1606 -3.0985,-8.4827 -2.1416,-2.4642 -4.83,-3.8385 -8.0197,-4.1228 L 10.9815,33.7412 C 8.8399,33.0304 7.79187,31.5139 7.7463,29.2866 7.79187,26.8224 9.61453,24.8794 11.984,24.8794 h 14.8091 c 2.2328,0 3.6453,-0.5687 4.3288,-1.706 C 31.8054,22.036 32.17,19.9509 32.17,16.8706 H 11.7106 C 8.38424,17.0128 5.65025,18.2923 3.41749,20.6143 1.2303,22.9364 0.0911333,25.8272 0,29.334 c 0.0455648,3.2699 1.0936,6.0658 3.09852,8.3405 2.09606,2.4168 4.64779,3.7438 7.70078,4.0281 l 2.1872,0.1895 h 12.8041 c 1.9594,0.9004 2.9619,2.4169 3.0074,4.502 -0.0455,2.4643 -1.9138,4.4072 -4.2377,4.4072 H 13.3054 V 50.849 H 5.37685 c -2.23276,0 -3.69089,0.5687 -4.37439,1.7535 C 0.318966,53.7398 0,55.8723 0,59 Z"
       fill="#1854ca"
       id="path2" />
    <path
       d="m 76.9618,58.9997 c 0,-3.0803 -0.3645,-5.1654 -1.048,-6.3028 -0.6835,-1.1373 -2.0961,-1.706 -4.3289,-1.706 l -7.7918,-0.0477 c -2.5062,0 -3.7821,0 -3.7821,0.0477 -6.8805,-0.1422 -11.2093,-3.1277 -12.8953,-9.0514 h 31.9422 c 0.1822,-0.7108 0.2733,-2.0377 0.2733,-3.9807 -0.1367,-6.0184 -2.096,-10.9943 -5.878,-14.9276 -3.7821,-3.9807 -8.6121,-6.0184 -14.399,-6.1606 -5.6047,0 -10.3436,2.0377 -14.2168,6.0658 -3.8731,4.0281 -5.8781,9.004 -6.0148,15.0224 0,5.7815 1.9594,10.7574 5.9237,14.8803 3.9643,4.1229 8.7487,6.1606 14.3534,6.1606 z M 71.5849,40.0914 c -0.5923,-3.1751 -1.8682,-4.739 -3.9187,-4.739 H 47.2069 c 1.6404,-6.7293 5.5591,-10.236 11.8017,-10.473 3.5086,0 6.516,1.2795 8.931,3.8385 2.4606,2.5117 3.6909,5.5919 3.6909,9.1935 z"
       fill="#1854ca"
       id="path4" />
    <path
       d="m 91.5887,5.59194 c 0,-2.32208 -0.5468,-3.79116 -1.6404,-4.502 C 88.8547,0.379096 86.8498,0 83.8879,0 v 53.4078 c 0,2.3221 0.5468,3.8385 1.6404,4.5493 1.0936,0.7108 3.0986,1.0426 6.0604,1.0426 z"
       fill="#1854ca"
       id="path6" />
    <path
       d="m 103.846,5.59194 c 0,-2.32208 -0.547,-3.79116 -1.64,-4.502 C 101.112,0.379096 99.1071,0 96.1453,0 v 53.4078 c 0,2.3221 0.5468,3.8385 1.6404,4.5493 1.0936,0.7108 3.0983,1.0426 6.0603,1.0426 z"
       fill="#1854ca"
       id="path8" />
    <path
       d="m 140.299,58.9997 c 2.962,0 4.967,-0.3317 6.061,-1.0426 1.093,-0.7108 1.64,-2.2272 1.64,-4.5493 V 16.5389 c -3.645,0 -5.833,0.9477 -6.516,2.7959 l -0.046,-2.4642 h -13.715 c -5.605,0 -10.344,2.0377 -14.308,6.1606 -3.964,4.1229 -5.924,9.0513 -5.924,14.8802 0,5.8289 1.96,10.8048 5.924,14.9277 3.964,4.1229 8.749,6.1606 14.353,6.1606 4.603,-0.0477 8.749,-1.6586 12.531,-4.8337 z m -12.576,-8.0562 c -3.463,0 -6.425,-1.2795 -8.886,-3.7911 -2.415,-2.5591 -3.645,-5.6394 -3.645,-9.241 0,-3.6016 1.23,-6.6818 3.645,-9.1935 2.461,-2.559 5.423,-3.8385 8.886,-3.8385 h 8.521 c 2.141,0 3.508,-0.9004 4.055,-2.6538 v 16.0176 c -0.091,3.5542 -1.367,6.5397 -3.782,9.004 -2.415,2.4642 -5.331,3.6963 -8.794,3.6963 z"
       fill="#1854ca"
       id="path10" />
  </g>
  <defs
     id="defs17">
    <clipPath
       id="clip0_6_50217">
      <rect
         width="148"
         height="59"
         fill="#ffffff"
         id="rect14"
         x="0"
         y="0" />
    </clipPath>
  </defs>
</svg>
