<svg width="148" height="59" viewBox="0 0 148 59" fill="none" xmlns="http://www.w3.org/2000/svg">
<g clip-path="url(#clip0_6_50217)">
<path d="M24.6515 58.9997C28.0234 58.8575 30.803 57.6254 33.0357 55.2559C35.2685 52.8864 36.4532 49.9484 36.5443 46.3941C36.4532 43.0295 35.4052 40.2335 33.4458 37.9114C31.3042 35.4472 28.6158 34.0729 25.4261 33.7886L10.9815 33.7412C8.8399 33.0304 7.79187 31.5139 7.7463 29.2866C7.79187 26.8224 9.61453 24.8794 11.984 24.8794H26.7931C29.0259 24.8794 30.4384 24.3107 31.1219 23.1734C31.8054 22.036 32.17 19.9509 32.17 16.8706H11.7106C8.38424 17.0128 5.65025 18.2923 3.41749 20.6143C1.2303 22.9364 0.0911333 25.8272 0 29.334C0.0455648 32.6039 1.0936 35.3998 3.09852 37.6745C5.19458 40.0913 7.74631 41.4183 10.7993 41.7026L12.9865 41.8921H25.7906C27.75 42.7925 28.7525 44.309 28.798 46.3941C28.7525 48.8584 26.8842 50.8013 24.5603 50.8013H13.3054V50.849H5.37685C3.14409 50.849 1.68596 51.4177 1.00246 52.6025C0.318966 53.7398 0 55.8723 0 59L24.6515 58.9997Z" fill="#1854CA"/>
<path d="M76.9618 58.9997C76.9618 55.9194 76.5973 53.8343 75.9138 52.6969C75.2303 51.5596 73.8177 50.9909 71.5849 50.9909L63.7931 50.9432C61.2869 50.9432 60.011 50.9432 60.011 50.9909C53.1305 50.8487 48.8017 47.8632 47.1157 41.9395H79.0579C79.2401 41.2287 79.3312 39.9018 79.3312 37.9588C79.1945 31.9404 77.2352 26.9645 73.4532 23.0312C69.6711 19.0505 64.8411 17.0128 59.0542 16.8706C53.4495 16.8706 48.7106 18.9083 44.8374 22.9364C40.9643 26.9645 38.9593 31.9404 38.8226 37.9588C38.8226 43.7403 40.782 48.7162 44.7463 52.8391C48.7106 56.962 53.495 58.9997 59.0997 58.9997H76.9618ZM71.5849 40.0914C70.9926 36.9163 69.7167 35.3524 67.6662 35.3524H47.2069C48.8473 28.6231 52.766 25.1164 59.0086 24.8794C62.5172 24.8794 65.5246 26.1589 67.9396 28.7179C70.4002 31.2296 71.6305 34.3098 71.6305 37.9114L71.5849 40.0914Z" fill="#1854CA"/>
<path d="M91.5887 5.59194C91.5887 3.26986 91.0419 1.80078 89.9483 1.08994C88.8547 0.379096 86.8498 0 83.8879 0V53.4078C83.8879 55.7299 84.4347 57.2463 85.5283 57.9571C86.6219 58.6679 88.6269 58.9997 91.5887 58.9997V5.59194Z" fill="#1854CA"/>
<path d="M103.846 5.59194C103.846 3.26986 103.299 1.80078 102.206 1.08994C101.112 0.379096 99.1071 0 96.1453 0V53.4078C96.1453 55.7299 96.6921 57.2463 97.7857 57.9571C98.8793 58.6679 100.884 58.9997 103.846 58.9997V5.59194Z" fill="#1854CA"/>
<path d="M140.299 58.9997C143.261 58.9997 145.266 58.668 146.36 57.9571C147.453 57.2463 148 55.7299 148 53.4078V16.5389C144.355 16.5389 142.167 17.4866 141.484 19.3348L141.438 16.8706H127.723C122.118 16.8706 117.379 18.9083 113.415 23.0312C109.451 27.1541 107.491 32.0825 107.491 37.9114C107.491 43.7403 109.451 48.7162 113.415 52.8391C117.379 56.962 122.164 58.9997 127.768 58.9997C132.371 58.952 136.517 57.3411 140.299 54.166V58.9997ZM127.723 50.9435C124.26 50.9435 121.298 49.664 118.837 47.1524C116.422 44.5933 115.192 41.513 115.192 37.9114C115.192 34.3098 116.422 31.2296 118.837 28.7179C121.298 26.1589 124.26 24.8794 127.723 24.8794H136.244C138.385 24.8794 139.752 23.979 140.299 22.2256V38.2432C140.208 41.7974 138.932 44.7829 136.517 47.2472C134.102 49.7114 131.186 50.9435 127.723 50.9435Z" fill="#1854CA"/>
</g>
<defs>
<clipPath id="clip0_6_50217">
<rect width="148" height="59" fill="white"/>
</clipPath>
</defs>
</svg>
