<?xml version="1.0" encoding="UTF-8"?><svg id="uuid-7f1d7954-7ac9-4912-b7f5-05c4383750b2" xmlns="http://www.w3.org/2000/svg" viewBox="0 0 501.56 301.66"><defs><style>.uuid-e41be743-6b64-47f5-abc4-2b1602568ad9{fill:#2b3990;stroke-width:0px;}</style></defs><g id="uuid-02806405-97e7-4c45-9631-ede56fabc5af"><path class="uuid-e41be743-6b64-47f5-abc4-2b1602568ad9" d="m27.96,220.46l15.58-24.23c11.15,7.48,24.94,11.86,36.56,10.39,13.33-1.68,19.2-7.75,18.14-16.14-1.12-8.9-9.51-10.74-22.49-14.26l-19.35-5.52c-15.39-4.11-30.78-14.39-33.36-34.92-2.95-23.41,15.61-44.74,45.02-48.45,16.27-2.05,34.09,2.22,47.78,12.79l-13.59,22.16c-10.21-5.97-19.55-8.78-30.72-7.37-11.01,1.39-17.45,6.86-16.43,14.94,1.09,8.67,10.73,10.65,23.68,14.01l18.92,5.03c18.13,4.8,30.35,14.94,32.87,34.91,2.95,23.46-14.05,46.26-47.72,50.5-18.39,2.32-38.8-2.19-54.91-13.84Z"/><path class="uuid-e41be743-6b64-47f5-abc4-2b1602568ad9" d="m144.19,169.34c-4.39-34.89,17.79-59.55,43.63-62.8,30.63-3.86,48.61,16.5,52.31,45.85.72,5.74.73,11.57.45,14.25l-64.34,8.1c4.82,15.24,16.41,21.06,30.76,19.25,8.13-1.02,15.14-4.42,22.37-9.96l12.96,17.88c-10.06,9.01-23.88,15.31-36.63,16.92-30.66,3.86-57.01-13.89-61.5-49.49Zm67.83-20.51c-1.49-11.83-7.71-19.69-20.43-18.09-10.07,1.27-17.91,9.12-18.37,22.98l38.8-4.88Z"/><path class="uuid-e41be743-6b64-47f5-abc4-2b1602568ad9" d="m265.28,174.73l-14.91-118.45,31.87-4.01,15.08,119.75c.86,6.84,4.3,8.61,6.9,8.28,1.22-.15,2.09-.26,3.85-.92l6.76,23.02c-3.33,1.95-8.42,3.76-15.66,4.67-21.86,2.75-31.13-10.57-33.87-32.33Z"/><path class="uuid-e41be743-6b64-47f5-abc4-2b1602568ad9" d="m327.28,166.93l-14.91-118.45,31.87-4.01,15.08,119.75c.86,6.84,4.3,8.61,6.9,8.28,1.22-.15,2.09-.26,3.85-.92l6.76,23.02c-3.33,1.95-8.42,3.76-15.66,4.67-21.86,2.75-31.13-10.57-33.87-32.33Z"/><path class="uuid-e41be743-6b64-47f5-abc4-2b1602568ad9" d="m384.78,163.34c-2.85-22.66,13.63-37.2,55.61-47.04-1.82-9.33-7.29-14.88-18.96-13.41-9.02,1.14-17.55,6.07-27.24,13.3l-13.96-19.49c12.6-10.06,27.25-17.81,44.15-19.94,27.49-3.46,44.7,10.33,48.85,43.29l7.74,61.49-26,3.27-3.68-10.73-.79.1c-8.05,9.1-17.49,16.04-29.58,17.56-19.61,2.47-33.86-10.27-36.14-28.39Zm60.39-9.04l-2.37-18.79c-22.28,5.91-28.85,13.32-27.83,21.45.87,6.93,6.07,9.72,13.64,8.77,7.22-.91,11.61-5.09,16.56-11.43Z"/></g></svg>